# xmcd CD database file
#
# Track frame offsets:
#	150
#	17624
#	40223
#	63636
#	83241
#	108297
#	127955
#	153863
#	170883
#	193791
#	215763
#	240322
#	254528
#	275308
#
# Disc length: 3900 seconds
#
# Revision: 1
# Processed by: cddbd v1.5.2PL0 Copyright (c) Steve Scherf et al.
# Submitted via: CDex 1.70beta3
#
DISCID=c10f3a0e
DTITLE=葉加瀬太郎 - Etupirka ～Best Acoustic～
DYEAR=2014
DGENRE=New Age
TTITLE0=エトピリカ
TTITLE1=シシリアンセレナーデ
TTITLE2=情熱大陸
TTITLE3=ハンガリー舞曲 第5番
TTITLE4=長崎夜曲
TTITLE5=Asian Roses
TTITLE6=ツィゴイネルワイゼン Op.20
TTITLE7=HANA 組曲「NIPPON」より
TTITLE8=History of the future
TTITLE9=ZERO HOUR
TTITLE10=冷静と情熱のあいだ
TTITLE11=リベルタンゴ
TTITLE12=WITH ONE WISH
TTITLE13=ひまわり
EXTD=YEAR: 2014
EXTT0=
EXTT1=
EXTT2=
EXTT3=
EXTT4=
EXTT5=
EXTT6=
EXTT7=
EXTT8=
EXTT9=
EXTT10=
EXTT11=
EXTT12=
EXTT13=
PLAYORDER=
